<svg xmlns="http://www.w3.org/2000/svg" width="512" height="512" viewBox="0 0 512 512" role="img" aria-label="Sacred Soul Logo">
  <defs>
    <linearGradient id="bg" x1="0" y1="0" x2="1" y2="1">
      <stop offset="0%" stop-color="#0a1224"/>
      <stop offset="100%" stop-color="#102a43"/>
    </linearGradient>
    <linearGradient id="halo" x1="0" y1="0" x2="1" y2="1">
      <stop offset="0%" stop-color="#ffd166"/>
      <stop offset="100%" stop-color="#f77f00"/>
    </linearGradient>
    <linearGradient id="soul" x1="0" y1="0" x2="1" y2="1">
      <stop offset="0%" stop-color="#5eead4"/>
      <stop offset="100%" stop-color="#22d3ee"/>
    </linearGradient>
  </defs>

  <rect x="0" y="0" width="512" height="512" rx="96" fill="url(#bg)"/>

  <circle cx="256" cy="190" r="126" fill="none" stroke="url(#halo)" stroke-width="20" opacity="0.95"/>

  <path d="M256 114
           C220 160, 204 196, 204 232
           C204 276, 226 310, 256 338
           C286 310, 308 276, 308 232
           C308 196, 292 160, 256 114Z"
        fill="url(#soul)" opacity="0.95"/>

  <path d="M256 152
           C236 182, 228 206, 228 228
           C228 256, 242 278, 256 292
           C270 278, 284 256, 284 228
           C284 206, 276 182, 256 152Z"
        fill="#ecfeff" opacity="0.85"/>

  <g fill="#f8fafc" font-family="Georgia, 'Times New Roman', serif" text-anchor="middle">
    <text x="256" y="428" font-size="46" font-weight="700" letter-spacing="2">SACRED SOUL</text>
    <text x="256" y="464" font-size="18" opacity="0.8" letter-spacing="4">TRADING BOT</text>
  </g>
</svg>
